<mxfile host="app.diagrams.net" modified="2022-09-24T16:56:00.551Z" agent="5.0 (Windows NT 10.0; Win64; x64) AppleWebKit/537.36 (KHTML, like Gecko) Chrome/105.0.0.0 Safari/537.36 Edg/105.0.1343.50" etag="poqEpjp05rerXgq5apO-" version="20.3.6" type="github">
  <diagram id="9JNc89d52sO5zC9LgYSv" name="Page-1">
    <mxGraphModel dx="992" dy="571" grid="1" gridSize="10" guides="1" tooltips="1" connect="1" arrows="1" fold="1" page="1" pageScale="1" pageWidth="850" pageHeight="1100" math="0" shadow="0">
      <root>
        <mxCell id="0" />
        <mxCell id="1" parent="0" />
        <mxCell id="DDNCpAYrAArwG_7_i44f-1" value="" style="verticalLabelPosition=bottom;verticalAlign=top;html=1;shape=mxgraph.basic.rect;fillColor2=none;strokeWidth=1;size=20;indent=5;fillColor=none;" vertex="1" parent="1">
          <mxGeometry x="260" y="10" width="220" height="730" as="geometry" />
        </mxCell>
        <mxCell id="TXFs_DxhfUPZw4CZAY7L-1" value="User" style="shape=umlActor;verticalLabelPosition=bottom;verticalAlign=top;html=1;outlineConnect=0;" parent="1" vertex="1">
          <mxGeometry x="100" y="310" width="30" height="60" as="geometry" />
        </mxCell>
        <mxCell id="Wk91pB_z8xOJq8TeC1MJ-2" value="Login/Logout" style="ellipse;whiteSpace=wrap;html=1;strokeOpacity=100;" parent="1" vertex="1">
          <mxGeometry x="320" y="30" width="100" height="60" as="geometry" />
        </mxCell>
        <mxCell id="Wk91pB_z8xOJq8TeC1MJ-5" value="Register" style="ellipse;whiteSpace=wrap;html=1;strokeOpacity=100;" parent="1" vertex="1">
          <mxGeometry x="320" y="100" width="100" height="60" as="geometry" />
        </mxCell>
        <mxCell id="Wk91pB_z8xOJq8TeC1MJ-6" value="Delete Account" style="ellipse;whiteSpace=wrap;html=1;strokeOpacity=100;" parent="1" vertex="1">
          <mxGeometry x="320" y="170" width="100" height="60" as="geometry" />
        </mxCell>
        <mxCell id="Wk91pB_z8xOJq8TeC1MJ-7" value="Search Parking Area" style="ellipse;whiteSpace=wrap;html=1;strokeOpacity=100;" parent="1" vertex="1">
          <mxGeometry x="320" y="240" width="100" height="60" as="geometry" />
        </mxCell>
        <mxCell id="Wk91pB_z8xOJq8TeC1MJ-8" value="Book Slot" style="ellipse;whiteSpace=wrap;html=1;strokeOpacity=100;" parent="1" vertex="1">
          <mxGeometry x="320" y="310" width="100" height="60" as="geometry" />
        </mxCell>
        <mxCell id="Wk91pB_z8xOJq8TeC1MJ-9" value="Cancel Slot" style="ellipse;whiteSpace=wrap;html=1;strokeOpacity=100;" parent="1" vertex="1">
          <mxGeometry x="320" y="380" width="100" height="60" as="geometry" />
        </mxCell>
        <mxCell id="Wk91pB_z8xOJq8TeC1MJ-10" value="Reschedule Slot" style="ellipse;whiteSpace=wrap;html=1;strokeOpacity=100;" parent="1" vertex="1">
          <mxGeometry x="320" y="450" width="100" height="60" as="geometry" />
        </mxCell>
        <mxCell id="Wk91pB_z8xOJq8TeC1MJ-11" value="Forgot Password" style="ellipse;whiteSpace=wrap;html=1;strokeOpacity=100;" parent="1" vertex="1">
          <mxGeometry x="320" y="520" width="100" height="60" as="geometry" />
        </mxCell>
        <mxCell id="Wk91pB_z8xOJq8TeC1MJ-12" value="Change Personality Information&amp;nbsp;" style="ellipse;whiteSpace=wrap;html=1;strokeOpacity=100;" parent="1" vertex="1">
          <mxGeometry x="320" y="590" width="100" height="60" as="geometry" />
        </mxCell>
        <mxCell id="Wk91pB_z8xOJq8TeC1MJ-13" value="Show Order History" style="ellipse;whiteSpace=wrap;html=1;strokeOpacity=100;" parent="1" vertex="1">
          <mxGeometry x="320" y="660" width="100" height="60" as="geometry" />
        </mxCell>
        <mxCell id="Wk91pB_z8xOJq8TeC1MJ-21" value="" style="endArrow=none;html=1;rounded=0;exitX=0.5;exitY=0.5;exitDx=0;exitDy=0;exitPerimeter=0;entryX=0;entryY=0.5;entryDx=0;entryDy=0;" parent="1" source="TXFs_DxhfUPZw4CZAY7L-1" target="Wk91pB_z8xOJq8TeC1MJ-2" edge="1">
          <mxGeometry width="50" height="50" relative="1" as="geometry">
            <mxPoint x="400" y="380" as="sourcePoint" />
            <mxPoint x="450" y="330" as="targetPoint" />
          </mxGeometry>
        </mxCell>
        <mxCell id="Wk91pB_z8xOJq8TeC1MJ-22" value="" style="endArrow=none;html=1;rounded=0;entryX=0;entryY=0.5;entryDx=0;entryDy=0;exitX=0.5;exitY=0.5;exitDx=0;exitDy=0;exitPerimeter=0;" parent="1" source="TXFs_DxhfUPZw4CZAY7L-1" target="Wk91pB_z8xOJq8TeC1MJ-5" edge="1">
          <mxGeometry width="50" height="50" relative="1" as="geometry">
            <mxPoint x="120" y="340" as="sourcePoint" />
            <mxPoint x="450" y="330" as="targetPoint" />
          </mxGeometry>
        </mxCell>
        <mxCell id="Wk91pB_z8xOJq8TeC1MJ-23" value="" style="endArrow=none;html=1;rounded=0;entryX=0;entryY=0.5;entryDx=0;entryDy=0;exitX=0.5;exitY=0.5;exitDx=0;exitDy=0;exitPerimeter=0;" parent="1" source="TXFs_DxhfUPZw4CZAY7L-1" target="Wk91pB_z8xOJq8TeC1MJ-6" edge="1">
          <mxGeometry width="50" height="50" relative="1" as="geometry">
            <mxPoint x="400" y="380" as="sourcePoint" />
            <mxPoint x="450" y="330" as="targetPoint" />
          </mxGeometry>
        </mxCell>
        <mxCell id="Wk91pB_z8xOJq8TeC1MJ-24" value="" style="endArrow=none;html=1;rounded=0;entryX=0;entryY=0.5;entryDx=0;entryDy=0;exitX=0.5;exitY=0.5;exitDx=0;exitDy=0;exitPerimeter=0;" parent="1" source="TXFs_DxhfUPZw4CZAY7L-1" target="Wk91pB_z8xOJq8TeC1MJ-7" edge="1">
          <mxGeometry width="50" height="50" relative="1" as="geometry">
            <mxPoint x="400" y="380" as="sourcePoint" />
            <mxPoint x="450" y="330" as="targetPoint" />
          </mxGeometry>
        </mxCell>
        <mxCell id="Wk91pB_z8xOJq8TeC1MJ-25" value="" style="endArrow=none;html=1;rounded=0;entryX=0;entryY=0.5;entryDx=0;entryDy=0;exitX=0.5;exitY=0.5;exitDx=0;exitDy=0;exitPerimeter=0;" parent="1" source="TXFs_DxhfUPZw4CZAY7L-1" target="Wk91pB_z8xOJq8TeC1MJ-8" edge="1">
          <mxGeometry width="50" height="50" relative="1" as="geometry">
            <mxPoint x="120" y="340" as="sourcePoint" />
            <mxPoint x="450" y="330" as="targetPoint" />
          </mxGeometry>
        </mxCell>
        <mxCell id="Wk91pB_z8xOJq8TeC1MJ-26" value="" style="endArrow=none;html=1;rounded=0;entryX=0;entryY=0.5;entryDx=0;entryDy=0;exitX=0.5;exitY=0.5;exitDx=0;exitDy=0;exitPerimeter=0;" parent="1" source="TXFs_DxhfUPZw4CZAY7L-1" target="Wk91pB_z8xOJq8TeC1MJ-9" edge="1">
          <mxGeometry width="50" height="50" relative="1" as="geometry">
            <mxPoint x="120" y="340" as="sourcePoint" />
            <mxPoint x="450" y="330" as="targetPoint" />
          </mxGeometry>
        </mxCell>
        <mxCell id="Wk91pB_z8xOJq8TeC1MJ-27" value="" style="endArrow=none;html=1;rounded=0;exitX=0.5;exitY=0.5;exitDx=0;exitDy=0;exitPerimeter=0;entryX=0;entryY=0.5;entryDx=0;entryDy=0;" parent="1" source="TXFs_DxhfUPZw4CZAY7L-1" target="Wk91pB_z8xOJq8TeC1MJ-10" edge="1">
          <mxGeometry width="50" height="50" relative="1" as="geometry">
            <mxPoint x="400" y="470" as="sourcePoint" />
            <mxPoint x="450" y="420" as="targetPoint" />
          </mxGeometry>
        </mxCell>
        <mxCell id="Wk91pB_z8xOJq8TeC1MJ-28" value="" style="endArrow=none;html=1;rounded=0;exitX=0.5;exitY=0.5;exitDx=0;exitDy=0;exitPerimeter=0;entryX=0;entryY=0.5;entryDx=0;entryDy=0;" parent="1" source="TXFs_DxhfUPZw4CZAY7L-1" target="Wk91pB_z8xOJq8TeC1MJ-11" edge="1">
          <mxGeometry width="50" height="50" relative="1" as="geometry">
            <mxPoint x="400" y="470" as="sourcePoint" />
            <mxPoint x="450" y="420" as="targetPoint" />
          </mxGeometry>
        </mxCell>
        <mxCell id="Wk91pB_z8xOJq8TeC1MJ-29" value="" style="endArrow=none;html=1;rounded=0;exitX=0;exitY=0.5;exitDx=0;exitDy=0;entryX=0.5;entryY=0.5;entryDx=0;entryDy=0;entryPerimeter=0;" parent="1" source="Wk91pB_z8xOJq8TeC1MJ-12" target="TXFs_DxhfUPZw4CZAY7L-1" edge="1">
          <mxGeometry width="50" height="50" relative="1" as="geometry">
            <mxPoint x="400" y="590" as="sourcePoint" />
            <mxPoint x="450" y="540" as="targetPoint" />
          </mxGeometry>
        </mxCell>
        <mxCell id="Wk91pB_z8xOJq8TeC1MJ-30" value="" style="endArrow=none;html=1;rounded=0;exitX=0.5;exitY=0.5;exitDx=0;exitDy=0;exitPerimeter=0;entryX=0;entryY=0.5;entryDx=0;entryDy=0;" parent="1" source="TXFs_DxhfUPZw4CZAY7L-1" target="Wk91pB_z8xOJq8TeC1MJ-13" edge="1">
          <mxGeometry width="50" height="50" relative="1" as="geometry">
            <mxPoint x="400" y="530" as="sourcePoint" />
            <mxPoint x="450" y="480" as="targetPoint" />
          </mxGeometry>
        </mxCell>
      </root>
    </mxGraphModel>
  </diagram>
</mxfile>
